<?xml version="1.0" encoding="UTF-8" standalone="no"?>
<svg
   xmlns:dc="http://purl.org/dc/elements/1.1/"
   xmlns:cc="http://creativecommons.org/ns#"
   xmlns:rdf="http://www.w3.org/1999/02/22-rdf-syntax-ns#"
   xmlns:svg="http://www.w3.org/2000/svg"
   xmlns="http://www.w3.org/2000/svg"
   xml:space="preserve"
   enable-background="new 0 0 144.8 79"
   viewBox="0 0 144.8 79"
   y="0px"
   x="0px"
   id="Layer_1"
   version="1.1"><metadata
     id="metadata41"><rdf:RDF><cc:Work
         rdf:about=""><dc:format>image/svg+xml</dc:format><dc:type
           rdf:resource="http://purl.org/dc/dcmitype/StillImage" /></cc:Work></rdf:RDF></metadata><defs
     id="defs39" /><g
     id="g34"><path
       id="path2"
       d="M85.4,40.8c0.7,1.9,3.1,3.4,4.5,4.9c2.1,2.3,3.7,5.5,6.5,7.1c3.6,2.1,8,3.2,11.9,4.3   c4.1,1.2,5.7,2.8,9.9,2.8c3.8,0,9.3-1.6,13-1.7c3.7,0,8.5-2.5,11-5.1c-2.5-0.2-12.3-5.6-13.4-6.9c-2.3-2.7-5.3-4.9-7.2-7.8   c-1.9-2.9-4.4-6.2-8.2-4.6c-2.8,1.2-5.8,2.7-8.5,4.2c-2.7,1.5-5.1,3-8.3,3.4c-2.5,0.3-9.6,1.7-10.9-0.9"
       fill="#718F40" /><g
       id="g6"><path
         id="path4"
         d="M126.9,48.8c-1.2-0.7-2.2-0.8-3.6-1c-0.8-0.2-1.7-0.4-2.5-0.7c0.9-0.3,3.8-1.9,4.7-3.3    c-1.8,0-3.6,0.6-5.4,0.7c-0.9,0.1-1.8,0.1-2.7,0.3c-0.9,0.2-2,0.8-3,0.7c1.3-0.5,2.2-2.5,3.7-2.7c-2.7,0.3-6.1,2.1-8.2,1.6    c-0.2-0.2,1.2-0.9,1.2-0.9s-3.9,0.9-4.3,0.4c1.2-0.9,2.5-1.8,4.7-2.8c-1.4,0.2-2.9,0.8-4.2,1.3c-1.1,0.4-2.7,1-3.9,0.6    c0,0-1.8-0.6-3-1c-1.6-0.5-7.9-1.1-11.8-1.3c-1.7-0.1-3.3-0.1-3.3-0.1s0.8,0.9,2.3,1.8c1.4,0.8,3.8,1.5,4.2,1.6    c1.5,0.8,3.3,1.2,4.8,1.9c4.3,2.1,9.5,3.4,14.4,3.4c5.8,0,11.7,0.4,17.5,0.1C128.2,49.1,127.5,49.1,126.9,48.8z"
         fill="#AEBE8F" /></g><path
       id="path8"
       d="M91.3,42.2c1,0.3,1.9,0.3,2.9,0.8c1,0.5,2,1,3,1.1c2.9,0.3,5.2-0.9,7.8-1.8   c1.6-0.5,3-0.9,4.5-1.7c0.8-0.5,1.5-1.2,2.4-1.7c0.7-0.4,1.4-0.6,2.1-1c1.2-0.7,3.6-2,3.4-3.7c-0.2-3.5-6.2,1.3-7.1,1.9   c-1.8,1.1-3.8,2-5.7,2.9c-1,0.4-1.9,0.4-3,0.7c-2.3,0.5-4.6,1.2-7,1.5c-1.2,0.2-2.6,0.4-3.7,0.7c0.5,0,2.3,0.6,1.8,0.8"
       fill="#34421D"
       opacity="0.4" /><path
       id="path10"
       d="M85.2,32.9c-0.2,1.9-0.3,4.1,0.9,5.4c1.5,1.6,3.9,1.8,5.9,2.3c3.9,0.8,6.5-0.4,10.2-1.8   c7.8-3.1,13.7-8.5,14.2-17.3c0.3-4.8,1.2-14,5.6-17.1c-3.2-0.1-6.5,0.5-9.5,1.6c-2.2,0.8-4.5,1.6-6.6,2.5c-1.9,0.8-3.2,2.1-5,3.2   c-1.8,1.1-3.7,2.3-5.2,3.8c-1.8,1.8-2.9,4.3-4.4,6.3c-1.1,1.5-1.7,3.3-2.9,4.7C87.9,27.2,85.3,31.2,85.2,32.9z"
       fill="#718F40" /><path
       id="path12"
       d="M112.6,15.8c-3.9-0.1-8.6,4.1-11.8,5.8c0.6-0.9,1.2-1.8,2-2.7c1.7-1.8,3.2-4,4.6-5.9   c-2.3,0-5.8,3.8-7.6,5.3c-2.5,2.1-4.7,3.1-6.6,5.9c-3.1,4.6-5.2,7.5-8,12c-0.1,1.3,1.5,2.6,1.5,2.6c-0.3-0.9,1.7-2.9,2.4-3.9   c0.4-0.5,0.8-1,1.2-1.4c1.5,0.4,4.6,0.1,5.5-1c-1.1,0.2-2.6-0.3-3.7-0.8c0.2-0.2,0.3-0.3,0.5-0.5c0.3-0.2,0.5-0.5,0.8-0.7   c2.8-1.3,5.7-1.4,7.6-4.2c-0.8-0.3-1.8-0.3-2.5-0.7c1.1-1,3-1.8,4.3-2.6C106.2,20.8,109.4,18.3,112.6,15.8z"
       fill="#AEBE8F" /><path
       id="path14"
       d="M2.9,62.4C5.8,57.3,13,47.6,19.1,41.1c4.7-5,11.2-14,17.8-17.8c8-4.6,16.4-3.5,24.8-3.5   c6.3,0,14.4-0.9,20,2.2c5.2,2.9,0.1,4.4-0.9,9.1c-1.2,5.7,0.7,10.7,4.1,15.2c1.9,2.5,4.8,3.6,4,7.3c-1.6,7.6-12.5,11.1-17.7,15   c-9.3,7-18.4,6.3-29.4,6.3c-8.7,0-16,1-23.5-3.9C13.6,67.9,8,65.1,3,63.6L2.9,62.4z"
       fill="#7DD4B3" /><path
       id="path16"
       d="M4.3,59.7c0-0.2,0.3-0.4,0.7-0.7c1.2-0.9,2.2-1.9,3.3-2.8c0.8-0.7,1.9-1.1,2.7-1.9c0.7-0.7,1-1.7,1.6-2.6   c0.5-0.8,1.2-1.4,2-1.8c0.3-0.2,1.9-1,2.3-0.7c0.3,0.3-1.1,1.4-0.4,3c0.8,1.8,3.5,1.8,4.4,1.4c1.5-0.6,2.2-3.2,1.6-4.7   c-0.6-1.6-4.4-1.6-5-2.6c-0.9-1.3,2-4.8,2.9-5.4c2-1.5,5.4-2.7,7.9-2.8c-0.1,0-0.2,0-0.3,0c0-0.1,0-0.3,0-0.4   c1.2-0.3,2.3-0.6,3.5-0.8c1.8-0.3,2.4-1.2,3.6-2.5c2.1-2.3,5-3,7.8-4.2c1.4-0.6,2.9-1.1,4.4-1.7c1-0.4,1.8-1.2,2.9-1.5   c2-0.7,4.2-0.7,6.1-1.2c-1.8-0.4-3.2-1.5-5.2-1.5c-1.3,0-2.7,0.2-4.1,0.3c-1.5,0.1-3.2,0-4.7,0.3c-0.9,0.2-1.6,0.9-2.5,1.3   c-0.7,0.3-1.5,0.4-2.2,0.6c-2,0.5-4,0.8-5.8,1.7c-2,1.1-3.6,2.5-5.4,3.8c-1.5,1-3.3,1.5-4.3,3.1c-1,1.6-1.8,3.2-2.6,4.8   c-0.3,0.7-0.9,1.3-1.3,1.9c-0.7,1-1.3,2.3-2.2,3.1c-0.9,0.9-1.9,1.8-2.9,2.6c-0.3,0.3-0.8,0.5-1.1,0.8c-0.4,0.4-0.6,1.1-1,1.6   c-1.7,2-3.2,3.7-4.1,6.2c-0.5,1.2-1.2,2.5-1.5,3.7"
       fill="#C8ECDC" /><path
       id="path18"
       d="M1.7,63.4c0,0-0.1-0.3,0-0.7c0.1-0.5,0.3-1.1,0.7-1.9c0.7-1.6,2-3.7,3.7-6.4c0.8-1.4,1.8-2.8,2.9-4.4   c1.1-1.6,2.3-3.3,3.5-5.1c1.2-1.9,2.4-3.9,3.8-6c1.4-2.1,3-4.2,5-6.3c1-1,2.1-2,3.3-2.9c1.2-0.9,2.4-1.8,3.8-2.5   c2.6-1.5,5.5-2.9,8.6-3.9c0.8-0.2,1.6-0.5,2.4-0.7l0.6-0.1l0.6-0.1l1.2-0.2c1.7-0.3,3.3-0.6,4.9-0.8c3.3-0.4,6.7-0.7,10.1-0.8   c1.7-0.1,3.5-0.1,5.2-0.1c0.9,0,1.8,0,2.7,0l1.4,0l0.7,0l0.8,0.1c3.4,0.5,7,0.9,10.5,1.5c0.9,0.2,1.8,0.3,2.7,0.5   c0.9,0.2,1.8,0.4,2.9,0.7c0.1,0.1,0.3,0.1,0.5,0.2c0.1,0.1,0.2,0.1,0.4,0.2c0.1,0,0.2,0.2,0.3,0.2c0.1,0.1,0.2,0.3,0.4,0.6   c0.1,0.4,0.1,0.8,0.1,0.6l0,0.1c0,0.2-0.1,0.4-0.1,0.5c-0.1,0.2-0.1,0.3-0.2,0.5c-0.2,0.5-0.4,1-0.7,1.4L83,30   c-0.4,0.8-0.8,1.6-1.2,2.3c-0.2,0.4-0.3,0.7-0.4,1.1l0,0.1c0,0,0,0.1,0,0.1l0,0.3l-0.1,0.6c-0.1,1.7,0,3.5,0.2,5.2   c0.1,0.9,0.3,1.7,0.5,2.5c0.1,0.4,0.3,0.8,0.4,1c0.2,0.4,0.5,0.8,0.7,1.1c1,1.4,2.2,2.8,3.4,4c0.6,0.6,1.3,1.2,2,1.8   c0.7,0.6,1.4,1.3,1.9,2.3c0.2,0.5,0.3,1.1,0.1,1.7c-0.1,0.3-0.2,0.5-0.3,0.8L90,55.5c-0.5,0.8-1,1.6-1.5,2.3   c-1,1.5-2.1,2.9-3.2,4.3c-1.1,1.4-2.3,2.8-3.7,3.9c-2.8,2.2-6,3.9-9.1,5.3c-1.6,0.7-3.2,1.3-4.8,1.9c-1.6,0.6-3.2,1.1-4.8,1.6   c-1.6,0.5-3.2,0.9-4.8,1.3c-1.6,0.4-3.2,0.7-4.8,0.9c-6.3,0.9-12.3,0.8-17.9,0.1c-2.8-0.5-5.3-1.2-7.7-2c-2.4-0.7-4.7-1.5-6.8-2.2   c-4.2-1.5-7.8-2.8-10.7-4.2c-2.9-1.3-5.2-2.3-6.6-3.4c-0.7-0.5-1.2-1-1.4-1.4C1.8,63.7,1.7,63.4,1.7,63.4L1.7,63.4z M3,63.3   c0,0,0.1,0.2,0.3,0.6c0.2,0.3,0.7,0.8,1.3,1.3c1.4,1,2.7,2,5.6,3.3c2.9,1.2,6.6,2.4,10.9,3.4c2.1,0.5,4.4,1,6.9,1.4   c2.4,0.4,5,0.9,7.6,1.1c5.3,0.2,11.1,1,17.2,0.3c1.5-0.2,3-0.4,4.5-0.7c1.5-0.3,3.1-1.6,4.7-1.9c1.6-0.4,3.2-0.8,4.8-1.2   c1.6-0.4,3.2-0.8,4.8-1.4c1.6-0.6,3.2-1.2,4.7-1.9c1.5-0.7,3-1.5,4.4-2.6c0.7-0.5,1.3-1,1.9-1.6c0.6-0.6,1.2-1.3,1.7-2   c1.1-1.3,2.2-2.7,3.2-4.2c0.5-0.7,1-1.5,1.4-2.2l0.3-0.6c0.1-0.1,0.1-0.3,0.2-0.5c0.1-0.3,0.1-0.6-0.1-0.9   c-0.3-0.6-0.9-1.2-1.6-1.8c-0.7-0.6-1.4-1.2-2.1-1.8c-1.4-1.2-2.7-2.5-3.9-4c-0.3-0.4-0.5-0.7-0.8-1.1c-0.3-0.5-0.5-1-0.7-1.4   c-0.4-0.9-0.6-1.9-0.8-2.8c-0.4-1.9-0.6-3.7-0.7-5.6c0-0.2,0-0.5,0-0.8l0-0.3c0-0.1,0-0.1,0-0.2l0-0.2c0.1-0.6,0.2-1.1,0.4-1.5   c0.3-0.9,0.7-1.8,1.1-2.6l1.2-2.4c0.2-0.4,0.4-0.8,0.4-1.1c0-0.1,0-0.1,0-0.2c0,0,0,0.1,0,0.1c0,0.1,0,0,0,0c0-0.2,0,0.1,0.1,0.5   c0.1,0.2,0.2,0.4,0.3,0.4c0,0.1,0.1,0.1,0.1,0.1c0.1,0,0.1,0.1,0.1,0.1l-0.1,0c-0.6-0.2-1.5-0.4-2.4-0.5c-0.9-0.1-1.7-0.3-2.6-0.4   c-3.5-0.5-7-0.8-10.5-1.2l-0.5,0l-0.6,0l-1.3,0c-0.8,0-1.7,0-2.6,0.1c-1.7,0.1-3.4-0.4-5.1-0.2c-3.4,0.2-6.7,0.5-9.9,0.9   c-1.6,0.2-3.2,0.4-4.7,0.6l-1.2,0.2l-0.5,0.1l-0.5,0.1c-0.7,0.2-1.4,0.3-2.2,0.6c-2.8,0.9-5.6,2.5-8.1,3.8c-1.2,0.6-2.5,1.3-3.6,2   c-1.2,0.8-2.2,1.5-3.2,2.3c-2,1.7-3.7,3.6-5.3,5.5c-1.6,1.9-3,3.7-4.4,5.5c-1.4,1.8-2.5,3.8-3.6,5.4c-1.1,1.5-2.2,3-3.1,4.3   C5,57.8,4.4,59.4,3.7,61c-0.4,0.8-0.6,1.4-0.7,1.8C3,63.1,3,63.3,3,63.3L3,63.3z" /><path
       id="path20"
       d="M51.9,60.7c-0.8,0.1-2.6,0.7-2.5,1.6c6.5,1.4,11.7-2.4,14.5-8.2c0.6-1.3,2.3-13.6-0.5-13   c-0.4,4.1-2.1,8.2-4,11.8c-1.4,2.7-4.1,7.8-7.6,8"
       fill="#46C69C" /><path
       id="path22"
       d="M39.2,57.7c0.5-2.3,0.7-3,1.4-4.2c1.5-2.7,6.2-3.2,8.7-4.7   c2.6-1.6,5-3.3,7.9-4.4c2-0.7,3.6-1.4,5.4-2.5c1.2,1.1-0.1,3.8-0.4,5.1c-0.8,3.3-2.5,5.9-5,8.1c-3,2.7-6.3,6.5-10.1,7.8   c-1.7,0.6-3.2,1.8-4.6,0.8C42.5,63.7,38.8,60.1,39.2,57.7z"
       fill="#C8ECDC"
       clip-rule="evenodd"
       fill-rule="evenodd" /><path
       id="path24"
       d="M54.6,51.4c0.4-0.9,1.5-1.6,2.1-2.4c0.8-1,1.3-2.5,2.2-3.4c0.4,1.7-1.3,3.9-2,5.3c-0.4,0.7-0.5,1.4-1.5,1.3   c-0.3,0-1.1-0.4-0.6-0.8"
       fill="#FFFFFE" /><path
       id="path26"
       d="M126.1,3.1c0-0.1,0-0.2-0.1-0.4c-0.1-0.3-0.4-0.6-0.6-0.7   c-0.4-0.2-0.7-0.2-0.8-0.2c-0.4,0-0.6,0.1-0.9,0.1c-1.1,0.2-1.7,0.2-2.6,0.5c-1,0.2-1.9,0.5-2.9,0.7c-1,0.2-1.9,0.3-2.9,0.4   c-4,0.6-7.7,2-11.3,3.3c-0.9,0.4-1.8,0.7-2.6,1.1c-0.9,0.4-1.7,0.8-2.5,1.2c-0.8,0.4-1.7,0.9-2.5,1.4c-0.4,0.3-0.7,0.5-1.1,0.7   l-0.5,0.4l-0.1,0.1l-0.1,0c-0.2,0.1-0.1,0.1-0.1,0.1l0,0l-0.3,0.3c-0.7,0.7-1.4,1.3-1.9,2.1c-0.5,0.7-1.1,1.4-1.5,2.1   c-0.9,1.4-1.7,2.8-2.4,4.2c-1.3,2.8-2.3,5.4-3.1,7.7c-0.4,1.2-0.8,2.2-1.1,3.3c-0.1,0.5-0.3,1-0.4,1.5c-0.1,0.2-0.1,0.5-0.2,0.7   c0,0.2-0.1,0.5-0.1,0.7c-0.3,1.8-0.1,3.2,0.3,4.1c0.2,0.4,0.3,0.6,0.5,0.8l0.4,0.4c0,0,0.1,0.1,0.3,0.3c0.2,0.2,0.6,0.3,1,0.5   c0.9,0.3,2.3,0.6,4,0.8c1.8,0.2,3.9,0.4,6.3,0.5c2.5,0.1,9.5-2.4,10-2.6c0.9-0.3,1.7-0.7,2.5-1.2c1.5-1,3-1.6,4.3-2.8   c0.6-0.6,2.4-2.1,2.7-2.3c0.1-0.1,1.7-1.7,1.9-2.2c0.3-0.5,0.4-1,0.5-1.5c0.2-1,0.3-1.9,0.4-2.9c0.2-1.9,0.4-3.8,0.6-5.7   c0.1-0.9,0.2-1.9,0.3-2.8c0.1-0.5,0.1-0.9,0.2-1.3c0.1-0.4,0.2-0.8,0.3-1.2c0.6-1.7,1.4-3.5,2.2-5.3c0.8-1.8,2.1-3,3-4.8l0.6-0.9   c0.1-0.3,0.3-0.7,0.3-0.9l0,0C126.1,3.4,126.1,3.1,126.1,3.1z M114.8,30.1L114.8,30.1C114.7,30.1,114.7,30.1,114.8,30.1L114.8,30.1   C114.8,30.1,115,29.9,114.8,30.1z M117.7,14.2c-0.2,0.5-0.4,1-0.6,1.6c-0.1,0.5-0.3,1.1-0.4,1.6c-0.2,1-0.4,2-0.5,3   c-0.3,1.9-0.6,3.8-0.8,5.6c-0.1,0.9-0.3,1.8-0.5,2.6c-0.1,0.4-0.2,0.8-0.3,1.2c-0.1,0.2-0.1,0.4-0.2,0.6c-0.2,0.1-0.4,0.3-0.6,0.5   c-0.4,0.4-0.7,0.7-1,1c-0.6,0.6-1.2,1.2-1.8,1.8c-1.1,1.2-2.3,2.2-3.4,3.1c-0.6,0.4-1.1,0.8-1.7,1.1c-0.3,0.1-0.5,0.3-0.8,0.3   l-0.4,0.1l-0.5,0.1c-2.8,0.6-5.5,1.1-7.9,1.5c-2.4,0.4-4.5,0.5-6.2,0.6c-1.7,0-3.1-0.2-3.9-0.4c-0.4-0.1-0.7-0.3-0.9-0.4   c-0.1-0.1-0.2-0.1-0.2-0.2l1.5-1.9c0,0,4.4-4.6,5.5-7c1.1-2.4,8.6-10.6,9.9-11.6c1.2-1,7.8-6.7,7.8-6.7S96.6,22.7,94.1,25.7   c-2.5,3-7.9,9.1-8.4,9.9c-0.4,0.6-1.3,1.1-1.7,1.4c-0.1-0.7,0-1.6,0.3-2.6c0.1-0.8,0.7-1.7,1-2.6c0.5-0.9,1-1.9,1.7-3   c1.2-2.1,2.7-4.3,4.3-6.8c0.8-1.2,1.6-2.5,2.5-3.7c0.4-0.7,0.9-1.2,1.4-1.9c0.5-0.7,1-1.1,1.5-1.7l0.2-0.2l0,0c0,0,0.1-0.1-0.1,0   l0.1-0.1l0.1-0.1l0.5-0.4c0.3-0.3,0.7-0.6,1-0.8c0.7-0.5,1.3-1,2-1.5c0.7-0.5,1.5-1,2.2-1.5c0.8-0.5,1.5-0.9,2.3-1.4   c1.6-0.9,3.3-1.8,5-2.5c1.7-0.8,3.6-1.3,5.4-1.5c2-0.2,4-0.5,5.9-0.9c1-0.2,3.5-1,3.5-1C122.8,6.3,119.3,10.3,117.7,14.2z"
       clip-rule="evenodd"
       fill-rule="evenodd" /><path
       id="path28"
       d="M143,51.7c-0.3-1-0.9-1.7-1.7-2.3l-0.8-0.5l-0.4-0.4c-0.8-0.6-2.2-1.7-3-2.4   c-1.6-1.4-2.9-2.3-4.5-3.7c-1.5-1.4-2.8-2.7-4.4-4.1c-0.8-0.7-1.7-1.2-2.5-1.9c-0.8-0.7-2.1-1.5-2.9-2.1c-1.7-1.2-2.8-1.9-4.6-2.8   c-0.5-0.2-1-0.5-1.6-0.7c-0.3-0.1,0.5-0.6,0.1-0.7c-0.2,0-0.4-0.1-0.8,0c-0.1,0-0.2,0-0.3,0c-0.2,0.1-0.1,0-0.2,0l0,0l-0.3,0.1   c-0.3,0.1-0.3,0.1-0.5,0.2l-0.3,0.2l-0.6,0.4c-0.4,0.2-0.3,0.8-0.7,1c-3.1,1.9-6,3.7-8.8,5.1c-1.4,0.7-2.7,1.3-4,1.8   c-0.7,0.2-1.3,0.4-1.9,0.5c-0.7,0.1-1.3,0.3-1.9,0.4c-2.5,0.5-5.3,0.4-7.1,0.4c-1.8,0.1-3.2-0.5-4.1-0.9c-0.4-0.2-0.6-0.3-0.9-0.5   c-0.2-0.1-0.3-0.3-0.5-0.4c-0.1-0.1,0,0.1,0.1,0.3c0.1,0.2,0.2,0.6,0.4,1.3c0.4,0.9,0.9,2.3,1.8,3.9c0.3,0.4,0.5,0.8,0.9,1.2   c0.3,0.4,0.7,0.8,1.1,1.3c0.8,0.8,1.6,1.7,2.5,2.6c0.2,0.2,0.4,0.5,0.6,0.7c0.2,0.3,0.4,0.5,0.6,0.8c0.4,0.5,0.9,1.2,1.4,1.7   c1,1.1,2.2,2.2,3.6,3.1c2.7,1.9,6,3.6,10,4.1c1,0.1,2,0.2,3,0.2c1,0,2-0.1,2.9-0.1c1.9-0.1,3.9-0.3,5.9-0.6c4-0.5,8-1.1,12.2-1.7   c2.1-0.3,4.1-0.7,6.2-1c0,0,3.9-0.7,4-0.8c0.4-0.1,1-0.3,1.4-0.7c0.4-0.4,0.7-0.9,0.8-1.3C143.3,52.8,143.1,52.2,143,51.7z    M136.3,53.5c-2.1,0.4-4.2,0.7-6.2,1.1c-4.1,0.7-8.2,0.4-12.1,1c-1.9,0.3-3.9,0.6-5.7,0.9c-0.9,0.1-1.8,0.2-2.7,0.3   c-0.9,0.1-1.7,0.1-2.5,0c-3.3-0.3-6.5-1.4-9.1-3c-1.3-0.8-2.5-1.6-3.5-2.6c-0.5-0.5-1-0.9-1.4-1.4c-0.4-0.5-0.9-1.1-1.4-1.5   c-2-1.8-3.8-3-4.9-4.5c-1.1-1.5-1.7-2.8-2.2-3.6c-0.1-0.2-0.1-0.3-0.2-0.4l0,0C85,41,87.3,41.8,88,42c1.1,0.3,4.3,0.9,6.4,1.5   c2.1,0.6,5.2,1.1,6.9,1c1.7-0.1,3.7,0.7,5.1,1c1.4,0.3,8.5,1.5,12.7,2.4c4.2,0.9,7.4,0,7.4,0s-2.2-1-6.4-1.1   c-4.3,0-19.5-3.3-25.9-4.9c-1-0.2-1.9-0.5-2.8-0.6c1.4,0.1,2.9,0,4.6-0.1c0.7-0.1,1.3-0.1,2-0.2c0.7-0.1,1.5-0.2,2.2-0.4   c1.5-0.4,3-0.9,4.5-1.5c3-1.2,6.1-2.8,9.3-4.5c0.4-0.2,0.8-0.4,1.2-0.6l0.6-0.3l0.3-0.1c0,0,0,0,0.1,0c0.1,0,0.2,0.1,0.3,0.1   c0.3,0.1,0.7,0.3,1.1,0.6c1.5,0.9,3.1,2,4.6,3.1c0.8,0.6,1.5,1.2,2.2,1.8c0.7,0.7,1.5,1.4,2.2,2.1c1.5,1.4,3,2.8,4.5,4.3   c1.5,1.4,3.8,2.2,5.4,3.7c0.8,0.7,4.3,2.5,4.4,3.3C140.9,53.2,137.4,53.3,136.3,53.5z"
       clip-rule="evenodd"
       fill-rule="evenodd" /><path
       id="path30"
       d="M42.3,61.2c-0.6-0.5-1-1.1-1.4-1.8c-0.4-0.7-0.6-1.4-0.7-2.2c-0.1-0.8,0-1.6,0.2-2.4c0.2-0.8,0.6-1.5,1-2.2   c0.5-0.6,0.9-1.3,1.5-1.8c0.5-0.6,1.1-1,1.7-1.5c0.6-0.5,1.2-0.8,1.9-1.2c0.6-0.4,1.3-0.7,1.9-1c2.6-1.3,5.3-2.4,7.8-3.8   c1.3-0.7,2.5-1.4,3.8-2.1c1.2-0.7,2.4-1.5,3.7-2.3l1.1-0.7l-0.2,1.3c-0.5,2.9-1.1,5.8-2,8.7c-0.2,0.7-0.5,1.4-0.7,2.1   c-0.2,0.7-0.5,1.4-0.8,2.1l-0.5,1.1c-0.2,0.3-0.4,0.7-0.6,1c-0.4,0.7-0.9,1.4-1.6,2l-0.8,0.7L56.8,58c-0.5,0.5-1,1-1.6,1.5   c-0.6,0.5-1.2,1-1.8,1.5c-0.6,0.5-1.3,0.8-2.1,1.2c-0.4,0.2-0.8,0.3-1.1,0.4c-0.4,0.1-0.8,0.2-1.2,0.3l-1.2,0.1   c-0.4,0-0.8-0.1-1.2-0.1c-0.8-0.1-1.5-0.3-2.2-0.6C43.6,62,43,61.6,42.3,61.2L42.3,61.2L42.3,61.2z M42.4,61.1   c0.7,0.1,1.4,0.4,2.1,0.5c0.7,0.1,1.4,0.1,2.1,0.2l1-0.1l1-0.2c0.3-0.1,0.6-0.2,0.9-0.3c0.3-0.2,0.6-0.3,0.9-0.4   c0.6-0.3,1.1-0.7,1.6-1.2c0.5-0.4,1-0.9,1.5-1.4l1.5-1.6l0.8-0.8l0.8-0.8c0.4-0.4,0.8-0.9,1.1-1.5c0.3-0.6,0.7-1.2,1-1.8   c0.3-0.6,0.6-1.3,0.9-1.9c0.3-0.7,0.5-1.3,0.8-2c0.5-1.4,1-2.7,1.4-4.1c0.5-1.4,0.9-2.8,1.3-4.2l0.9,0.6c-1.3,0.6-2.6,1.3-3.9,1.9   c-1.3,0.7-2.5,1.4-3.8,2.1c-2.5,1.5-4.8,3.2-7.3,4.8l-1.8,1.1c-0.6,0.4-1.2,0.7-1.7,1.1c-0.6,0.4-1.1,0.8-1.6,1.3   c-0.5,0.4-0.9,0.9-1.4,1.4c-0.4,0.5-0.7,1.1-1,1.7c-0.2,0.6-0.4,1.2-0.4,1.9c0,0.6,0,1.3,0.3,2C41.8,59.8,42,60.5,42.4,61.1z" /><path
       id="path32"
       d="M19.1,53.5c0,0,0.5-0.2,0.9-0.2c0.4,0,0.3,0,0.9-0.1c0.3,0,0.5-0.1,0.8-0.2c0.3-0.1,0.6-0.2,0.9-0.5   c0.3-0.2,0.3-0.5,0.4-0.8c0-0.2,0-0.5-0.1-0.7c-0.1-0.2-0.4-0.5-0.5-0.7c-0.3-0.4-0.3-0.5-0.6-0.9c-0.3-0.4-0.5-0.8-0.7-1.2   c-0.1-0.2-0.3-0.3-0.4-0.5c0-0.1-0.3-0.3-0.3-0.3c-0.2-0.2-0.7-0.4-1-0.4c-0.3,0-0.5,0.2-0.6,0.2c-0.1,0.1-0.2,0.1-0.2,0.1   l-0.3,0.2c0,0,0.3-0.6,0.6-1c0.2-0.2,0.4-0.4,0.7-0.6c0.3-0.2,0.7-0.3,1.2-0.3c0.2,0,0.5,0,0.8,0.1c0.3,0.1,0.6,0.2,0.8,0.3   l0.1,0.1l0,0l0,0l0.1,0.1l0,0l0.1,0.1c0.1,0.1,0.2,0.2,0.3,0.4c0.1,0.2,0.3,0.4,0.4,0.7c0.4,0.9,0.9,1.8,1,2.9   c0.1,0.2,0.1,0.5,0.1,0.8c0.1,0.3,0.1,0.5,0.1,0.8c0,0.5-0.1,1.1-0.3,1.6c-0.2,0.5-0.6,1-1.1,1.2c-0.5,0.2-1,0.3-1.4,0.3   c-0.9,0-1.5-0.3-1.9-0.6c-0.4-0.3-0.5-0.5-0.6-0.5L19.1,53.5z" /></g></svg>